<?xml version="1.0" encoding="UTF-8" standalone="no"?>
<!DOCTYPE svg PUBLIC "-//W3C//DTD SVG 1.1//EN"
 "http://www.w3.org/Graphics/SVG/1.1/DTD/svg11.dtd">
<!-- Generated by graphviz version 2.38.0 (20140413.2041)
 -->
<!-- Title: G Pages: 1 -->
<svg width="667pt" height="668pt"
 viewBox="0.00 0.00 667.15 668.00" xmlns="http://www.w3.org/2000/svg" xmlns:xlink="http://www.w3.org/1999/xlink">
<g id="graph0" class="graph" transform="scale(1 1) rotate(0) translate(4 664)">
<title>G</title>
<polygon fill="white" stroke="none" points="-4,4 -4,-664 663.152,-664 663.152,4 -4,4"/>
<g id="clust1" class="cluster"><title>cluster_Global</title>
<path fill="none" stroke="gray" d="M20,-8C20,-8 639.152,-8 639.152,-8 645.152,-8 651.152,-14 651.152,-20 651.152,-20 651.152,-640 651.152,-640 651.152,-646 645.152,-652 639.152,-652 639.152,-652 20,-652 20,-652 14,-652 8,-646 8,-640 8,-640 8,-20 8,-20 8,-14 14,-8 20,-8"/>
<text text-anchor="middle" x="329.576" y="-639.2" font-family="Times,serif" font-size="11.00" fill="gray">Global</text>
</g>
<g id="clust2" class="cluster"><title>cluster_\erdiko</title>
<path fill="none" stroke="gray" d="M28,-16C28,-16 282.731,-16 282.731,-16 288.731,-16 294.731,-22 294.731,-28 294.731,-28 294.731,-613 294.731,-613 294.731,-619 288.731,-625 282.731,-625 282.731,-625 28,-625 28,-625 22,-625 16,-619 16,-613 16,-613 16,-28 16,-28 16,-22 22,-16 28,-16"/>
<text text-anchor="middle" x="155.365" y="-612.2" font-family="Times,serif" font-size="11.00" fill="gray">erdiko</text>
</g>
<g id="clust3" class="cluster"><title>cluster_\erdiko\core</title>
<path fill="none" stroke="gray" d="M36,-24C36,-24 274.731,-24 274.731,-24 280.731,-24 286.731,-30 286.731,-36 286.731,-36 286.731,-586 286.731,-586 286.731,-592 280.731,-598 274.731,-598 274.731,-598 36,-598 36,-598 30,-598 24,-592 24,-586 24,-586 24,-36 24,-36 24,-30 30,-24 36,-24"/>
<text text-anchor="middle" x="155.365" y="-585.2" font-family="Times,serif" font-size="11.00" fill="gray">core</text>
</g>
<g id="clust4" class="cluster"><title>cluster_\erdiko\core\datasource</title>
<path fill="none" stroke="gray" d="M58.2793,-308C58.2793,-308 104.279,-308 104.279,-308 110.279,-308 116.279,-314 116.279,-320 116.279,-320 116.279,-367 116.279,-367 116.279,-373 110.279,-379 104.279,-379 104.279,-379 58.2793,-379 58.2793,-379 52.2793,-379 46.2793,-373 46.2793,-367 46.2793,-367 46.2793,-320 46.2793,-320 46.2793,-314 52.2793,-308 58.2793,-308"/>
<text text-anchor="middle" x="81.2793" y="-366.2" font-family="Times,serif" font-size="11.00" fill="gray">datasource</text>
</g>
<g id="clust5" class="cluster"><title>cluster_\erdiko\core\cache</title>
<path fill="none" stroke="gray" d="M44,-402C44,-402 266.731,-402 266.731,-402 272.731,-402 278.731,-408 278.731,-414 278.731,-414 278.731,-515 278.731,-515 278.731,-521 272.731,-527 266.731,-527 266.731,-527 44,-527 44,-527 38,-527 32,-521 32,-515 32,-515 32,-414 32,-414 32,-408 38,-402 44,-402"/>
<text text-anchor="middle" x="155.365" y="-514.2" font-family="Times,serif" font-size="11.00" fill="gray">cache</text>
</g>
<g id="clust6" class="cluster"><title>cluster_\app</title>
<path fill="none" stroke="gray" d="M453.914,-465C453.914,-465 538.393,-465 538.393,-465 544.393,-465 550.393,-471 550.393,-477 550.393,-477 550.393,-613 550.393,-613 550.393,-619 544.393,-625 538.393,-625 538.393,-625 453.914,-625 453.914,-625 447.914,-625 441.914,-619 441.914,-613 441.914,-613 441.914,-477 441.914,-477 441.914,-471 447.914,-465 453.914,-465"/>
<text text-anchor="middle" x="496.153" y="-612.2" font-family="Times,serif" font-size="11.00" fill="gray">app</text>
</g>
<g id="clust7" class="cluster"><title>cluster_\app\controllers</title>
<path fill="none" stroke="gray" d="M461.914,-473C461.914,-473 530.393,-473 530.393,-473 536.393,-473 542.393,-479 542.393,-485 542.393,-485 542.393,-586 542.393,-586 542.393,-592 536.393,-598 530.393,-598 530.393,-598 461.914,-598 461.914,-598 455.914,-598 449.914,-592 449.914,-586 449.914,-586 449.914,-485 449.914,-485 449.914,-479 455.914,-473 461.914,-473"/>
<text text-anchor="middle" x="496.153" y="-585.2" font-family="Times,serif" font-size="11.00" fill="gray">controllers</text>
</g>
<g id="clust8" class="cluster"><title>cluster_\Composer</title>
<path fill="none" stroke="gray" d="M456.661,-347C456.661,-347 535.645,-347 535.645,-347 541.645,-347 547.645,-353 547.645,-359 547.645,-359 547.645,-441 547.645,-441 547.645,-447 541.645,-453 535.645,-453 535.645,-453 456.661,-453 456.661,-453 450.661,-453 444.661,-447 444.661,-441 444.661,-441 444.661,-359 444.661,-359 444.661,-353 450.661,-347 456.661,-347"/>
<text text-anchor="middle" x="496.153" y="-440.2" font-family="Times,serif" font-size="11.00" fill="gray">Composer</text>
</g>
<g id="clust9" class="cluster"><title>cluster_\Composer\Autoload</title>
<path fill="none" stroke="gray" d="M464.661,-355C464.661,-355 527.645,-355 527.645,-355 533.645,-355 539.645,-361 539.645,-367 539.645,-367 539.645,-414 539.645,-414 539.645,-420 533.645,-426 527.645,-426 527.645,-426 464.661,-426 464.661,-426 458.661,-426 452.661,-420 452.661,-414 452.661,-414 452.661,-367 452.661,-367 452.661,-361 458.661,-355 464.661,-355"/>
<text text-anchor="middle" x="496.153" y="-413.2" font-family="Times,serif" font-size="11.00" fill="gray">Autoload</text>
</g>
<!-- \\erdiko\\core\\datasource\\File -->
<g id="node1" class="node"><title>\\erdiko\\core\\datasource\\File</title>
<polygon fill="none" stroke="black" points="108.279,-352 54.2793,-352 54.2793,-316 108.279,-316 108.279,-352"/>
<text text-anchor="middle" x="81.2793" y="-330.7" font-family="Times,serif" font-size="11.00">File</text>
</g>
<!-- \\erdiko\\core\\cache\\Memcached -->
<g id="node2" class="node"><title>\\erdiko\\core\\cache\\Memcached</title>
<polygon fill="none" stroke="black" points="270.606,-500 201.108,-500 201.108,-464 270.606,-464 270.606,-500"/>
<text text-anchor="middle" x="235.857" y="-478.7" font-family="Times,serif" font-size="11.00">Memcached</text>
</g>
<!-- \\erdiko\\core\\cache\\CacheInterface -->
<g id="node4" class="node"><title>\\erdiko\\core\\cache\\CacheInterface</title>
<polygon fill="none" stroke="black" points="122.339,-473 40.2195,-473 40.2195,-437 122.339,-437 122.339,-473"/>
<text text-anchor="middle" x="81.2793" y="-451.7" font-family="Times,serif" font-size="11.00">CacheInterface</text>
</g>
<!-- \\erdiko\\core\\cache\\Memcached&#45;&gt;\\erdiko\\core\\cache\\CacheInterface -->
<g id="edge3" class="edge"><title>\\erdiko\\core\\cache\\Memcached&#45;&gt;\\erdiko\\core\\cache\\CacheInterface</title>
<path fill="none" stroke="black" stroke-dasharray="1,5" d="M200.995,-476.008C180.895,-472.451 155.035,-467.875 132.584,-463.902"/>
<polygon fill="none" stroke="black" points="132.999,-460.421 122.542,-462.125 131.779,-467.314 132.999,-460.421"/>
</g>
<!-- \\erdiko\\core\\cache\\File -->
<g id="node3" class="node"><title>\\erdiko\\core\\cache\\File</title>
<polygon fill="none" stroke="black" points="262.857,-446 208.857,-446 208.857,-410 262.857,-410 262.857,-446"/>
<text text-anchor="middle" x="235.857" y="-424.7" font-family="Times,serif" font-size="11.00">File</text>
</g>
<!-- \\erdiko\\core\\cache\\File&#45;&gt;\\erdiko\\core\\datasource\\File -->
<g id="edge7" class="edge"><title>\\erdiko\\core\\cache\\File&#45;&gt;\\erdiko\\core\\datasource\\File</title>
<path fill="none" stroke="black" d="M208.692,-414.065C203.955,-411.443 199.084,-408.682 194.559,-406 168.178,-390.367 139.047,-371.642 117.069,-357.207"/>
<polygon fill="none" stroke="black" points="118.994,-354.283 108.718,-351.702 115.141,-360.128 118.994,-354.283"/>
</g>
<!-- \\erdiko\\core\\cache\\File&#45;&gt;\\erdiko\\core\\cache\\CacheInterface -->
<g id="edge8" class="edge"><title>\\erdiko\\core\\cache\\File&#45;&gt;\\erdiko\\core\\cache\\CacheInterface</title>
<path fill="none" stroke="black" stroke-dasharray="1,5" d="M208.628,-432.641C187.717,-436.342 157.822,-441.632 132.361,-446.138"/>
<polygon fill="none" stroke="black" points="131.724,-442.696 122.487,-447.885 132.944,-449.589 131.724,-442.696"/>
</g>
<!-- \\erdiko\\core\\AjaxResponse -->
<g id="node5" class="node"><title>\\erdiko\\core\\AjaxResponse</title>
<polygon fill="none" stroke="black" points="275.403,-284 196.31,-284 196.31,-248 275.403,-248 275.403,-284"/>
<text text-anchor="middle" x="235.857" y="-262.7" font-family="Times,serif" font-size="11.00">AjaxResponse</text>
</g>
<!-- \\erdiko\\core\\Response -->
<g id="node11" class="node"><title>\\erdiko\\core\\Response</title>
<polygon fill="none" stroke="black" points="110.443,-284 52.116,-284 52.116,-248 110.443,-248 110.443,-284"/>
<text text-anchor="middle" x="81.2793" y="-262.7" font-family="Times,serif" font-size="11.00">Response</text>
</g>
<!-- \\erdiko\\core\\AjaxResponse&#45;&gt;\\erdiko\\core\\Response -->
<g id="edge1" class="edge"><title>\\erdiko\\core\\AjaxResponse&#45;&gt;\\erdiko\\core\\Response</title>
<path fill="none" stroke="black" d="M195.96,-266C172.838,-266 143.627,-266 120.605,-266"/>
<polygon fill="none" stroke="black" points="120.508,-262.5 110.508,-266 120.508,-269.5 120.508,-262.5"/>
</g>
<!-- \\erdiko\\core\\Container -->
<g id="node6" class="node"><title>\\erdiko\\core\\Container</title>
<polygon fill="none" stroke="black" points="111.983,-122 50.5758,-122 50.5758,-86 111.983,-86 111.983,-122"/>
<text text-anchor="start" x="58.6777" y="-106.2" font-family="Times,serif" font-size="11.00">«abstract»</text>
<text text-anchor="start" x="59.5908" y="-95.2" font-family="Times,serif" font-size="11.00">Container</text>
</g>
<!-- \\erdiko\\core\\ModelAbstract -->
<g id="node7" class="node"><title>\\erdiko\\core\\ModelAbstract</title>
<polygon fill="none" stroke="black" points="276.841,-392 194.873,-392 194.873,-356 276.841,-356 276.841,-392"/>
<text text-anchor="start" x="213.255" y="-376.2" font-family="Times,serif" font-size="11.00">«abstract»</text>
<text text-anchor="start" x="202.865" y="-365.2" font-family="Times,serif" font-size="11.00">ModelAbstract</text>
</g>
<!-- \\erdiko\\core\\Layout -->
<g id="node8" class="node"><title>\\erdiko\\core\\Layout</title>
<polygon fill="none" stroke="black" points="262.857,-68 208.857,-68 208.857,-32 262.857,-32 262.857,-68"/>
<text text-anchor="middle" x="235.857" y="-46.7" font-family="Times,serif" font-size="11.00">Layout</text>
</g>
<!-- \\erdiko\\core\\Layout&#45;&gt;\\erdiko\\core\\Container -->
<g id="edge2" class="edge"><title>\\erdiko\\core\\Layout&#45;&gt;\\erdiko\\core\\Container</title>
<path fill="none" stroke="black" d="M208.628,-59.2829C184.724,-67.7428 149.081,-80.3576 121.741,-90.0339"/>
<polygon fill="none" stroke="black" points="120.34,-86.8169 112.081,-93.4528 122.675,-93.4158 120.34,-86.8169"/>
</g>
<!-- \\erdiko\\core\\Theme -->
<g id="node9" class="node"><title>\\erdiko\\core\\Theme</title>
<polygon fill="none" stroke="black" points="262.857,-230 208.857,-230 208.857,-194 262.857,-194 262.857,-230"/>
<text text-anchor="middle" x="235.857" y="-208.7" font-family="Times,serif" font-size="11.00">Theme</text>
</g>
<!-- \\erdiko\\core\\Theme&#45;&gt;\\erdiko\\core\\Container -->
<g id="edge5" class="edge"><title>\\erdiko\\core\\Theme&#45;&gt;\\erdiko\\core\\Container</title>
<path fill="none" stroke="black" d="M208.754,-194.702C204.011,-191.505 199.122,-188.173 194.559,-185 167.611,-166.261 137.465,-144.466 115.2,-128.207"/>
<polygon fill="none" stroke="black" points="117.214,-125.344 107.076,-122.265 113.081,-130.994 117.214,-125.344"/>
</g>
<!-- \\erdiko\\core\\Logger -->
<g id="node10" class="node"><title>\\erdiko\\core\\Logger</title>
<polygon fill="none" stroke="black" points="262.857,-338 208.857,-338 208.857,-302 262.857,-302 262.857,-338"/>
<text text-anchor="middle" x="235.857" y="-316.7" font-family="Times,serif" font-size="11.00">Logger</text>
</g>
<!-- \\erdiko\\core\\Logger&#45;&gt;\\erdiko\\core\\datasource\\File -->
<g id="edge6" class="edge"><title>\\erdiko\\core\\Logger&#45;&gt;\\erdiko\\core\\datasource\\File</title>
<path fill="none" stroke="black" d="M208.628,-322.407C183.771,-324.687 146.221,-328.133 118.512,-330.675"/>
<polygon fill="none" stroke="black" points="118.059,-327.202 108.421,-331.601 118.699,-334.173 118.059,-327.202"/>
</g>
<!-- \\erdiko\\core\\Cache -->
<g id="node12" class="node"><title>\\erdiko\\core\\Cache</title>
<polygon fill="none" stroke="black" points="262.857,-176 208.857,-176 208.857,-140 262.857,-140 262.857,-176"/>
<text text-anchor="middle" x="235.857" y="-154.7" font-family="Times,serif" font-size="11.00">Cache</text>
</g>
<!-- \\erdiko\\core\\View -->
<g id="node13" class="node"><title>\\erdiko\\core\\View</title>
<polygon fill="none" stroke="black" points="262.857,-122 208.857,-122 208.857,-86 262.857,-86 262.857,-122"/>
<text text-anchor="middle" x="235.857" y="-100.7" font-family="Times,serif" font-size="11.00">View</text>
</g>
<!-- \\erdiko\\core\\View&#45;&gt;\\erdiko\\core\\Container -->
<g id="edge10" class="edge"><title>\\erdiko\\core\\View&#45;&gt;\\erdiko\\core\\Container</title>
<path fill="none" stroke="black" d="M208.628,-104C184.829,-104 149.394,-104 122.101,-104"/>
<polygon fill="none" stroke="black" points="122.081,-100.5 112.081,-104 122.08,-107.5 122.081,-100.5"/>
</g>
<!-- \\erdiko\\core\\AjaxController -->
<g id="node14" class="node"><title>\\erdiko\\core\\AjaxController</title>
<polygon fill="none" stroke="black" points="276.954,-571 194.76,-571 194.76,-535 276.954,-535 276.954,-571"/>
<text text-anchor="middle" x="235.857" y="-549.7" font-family="Times,serif" font-size="11.00">AjaxController</text>
</g>
<!-- \\erdiko\\core\\Controller -->
<g id="node15" class="node"><title>\\erdiko\\core\\Controller</title>
<polygon fill="none" stroke="black" points="111.994,-571 50.5651,-571 50.5651,-535 111.994,-535 111.994,-571"/>
<text text-anchor="middle" x="81.2793" y="-549.7" font-family="Times,serif" font-size="11.00">Controller</text>
</g>
<!-- \\erdiko\\core\\AjaxController&#45;&gt;\\erdiko\\core\\Controller -->
<g id="edge11" class="edge"><title>\\erdiko\\core\\AjaxController&#45;&gt;\\erdiko\\core\\Controller</title>
<path fill="none" stroke="black" d="M194.369,-553C172.115,-553 144.603,-553 122.406,-553"/>
<polygon fill="none" stroke="black" points="122.301,-549.5 112.301,-553 122.301,-556.5 122.301,-549.5"/>
</g>
<!-- \\app\\controllers\\AjaxExample -->
<g id="node16" class="node"><title>\\app\\controllers\\AjaxExample</title>
<polygon fill="none" stroke="black" points="534.633,-517 457.673,-517 457.673,-481 534.633,-481 534.633,-517"/>
<text text-anchor="middle" x="496.153" y="-495.7" font-family="Times,serif" font-size="11.00">AjaxExample</text>
</g>
<!-- \\app\\controllers\\AjaxExample&#45;&gt;\\erdiko\\core\\AjaxController -->
<g id="edge4" class="edge"><title>\\app\\controllers\\AjaxExample&#45;&gt;\\erdiko\\core\\AjaxController</title>
<path fill="none" stroke="black" d="M457.841,-505.338C428.277,-510.495 385.967,-518.177 349.155,-526 328.694,-530.348 306.262,-535.636 286.862,-540.376"/>
<polygon fill="none" stroke="black" points="285.895,-537.009 277.02,-542.796 287.567,-543.807 285.895,-537.009"/>
</g>
<!-- \\app\\controllers\\Example -->
<g id="node17" class="node"><title>\\app\\controllers\\Example</title>
<polygon fill="none" stroke="black" points="523.75,-571 468.557,-571 468.557,-535 523.75,-535 523.75,-571"/>
<text text-anchor="middle" x="496.153" y="-549.7" font-family="Times,serif" font-size="11.00">Example</text>
</g>
<!-- \\app\\controllers\\Example&#45;&gt;\\erdiko\\core\\Controller -->
<g id="edge9" class="edge"><title>\\app\\controllers\\Example&#45;&gt;\\erdiko\\core\\Controller</title>
<path fill="none" stroke="black" d="M468.562,-559.09C416.078,-570.291 295.501,-591.966 194.559,-580 169.981,-577.086 142.998,-570.704 121.644,-564.876"/>
<polygon fill="none" stroke="black" points="122.528,-561.489 111.954,-562.165 120.641,-568.23 122.528,-561.489"/>
</g>
<!-- \\Composer\\Autoload\\ClassLoader -->
<g id="node18" class="node"><title>\\Composer\\Autoload\\ClassLoader</title>
<polygon fill="none" stroke="black" points="531.637,-399 460.669,-399 460.669,-363 531.637,-363 531.637,-399"/>
<text text-anchor="middle" x="496.153" y="-377.7" font-family="Times,serif" font-size="11.00">ClassLoader</text>
</g>
<!-- \\Toro -->
<g id="node19" class="node"><title>\\Toro</title>
<polygon fill="none" stroke="black" points="523.153,-331 469.153,-331 469.153,-295 523.153,-295 523.153,-331"/>
<text text-anchor="middle" x="496.153" y="-309.7" font-family="Times,serif" font-size="11.00">Toro</text>
</g>
<!-- \\ToroHook -->
<g id="node20" class="node"><title>\\ToroHook</title>
<polygon fill="none" stroke="black" points="526.711,-261 465.595,-261 465.595,-225 526.711,-225 526.711,-261"/>
<text text-anchor="middle" x="496.153" y="-239.7" font-family="Times,serif" font-size="11.00">ToroHook</text>
</g>
<!-- \\Erdiko -->
<g id="node21" class="node"><title>\\Erdiko</title>
<polygon fill="none" stroke="black" points="523.153,-175 469.153,-175 469.153,-139 523.153,-139 523.153,-175"/>
<text text-anchor="middle" x="496.153" y="-153.7" font-family="Times,serif" font-size="11.00">Erdiko</text>
</g>
<!-- \\ComposerAutoloaderInitd8242f852da43cb5ec3b803d3f4783df -->
<g id="node22" class="node"><title>\\ComposerAutoloaderInitd8242f852da43cb5ec3b803d3f4783df</title>
<polygon fill="none" stroke="black" points="643.15,-57 349.156,-57 349.156,-21 643.15,-21 643.15,-57"/>
<text text-anchor="middle" x="496.153" y="-35.7" font-family="Times,serif" font-size="11.00">ComposerAutoloaderInitd8242f852da43cb5ec3b803d3f4783df</text>
</g>
</g>
</svg>
